<svg width="377" height="98" viewBox="0 0 377 98" fill="none" xmlns="http://www.w3.org/2000/svg">
<path d="M150.267 38.7541C149.743 34.2754 146.893 31.4248 142.705 31.4248C137.819 31.4248 135.085 35.3221 135.085 40.2661V56.3208C135.085 61.5554 137.936 65.3941 142.937 65.3941C147.009 65.3941 149.859 62.4861 150.441 58.5888H158.468C157.887 66.9648 151.313 72.1421 142.996 72.1421C132.643 72.1421 127 65.6848 127 56.2034V40.6741C127 31.4248 132.409 24.7941 142.821 24.7941C151.721 24.7941 157.596 30.4941 158.295 38.7541H150.267Z" fill="#4A5CA9"/>
<path d="M179.642 64.0562C179.642 64.6389 179.934 64.9295 180.456 64.9295H188.251V71.2695H176.094C173.244 71.2695 171.847 69.9309 171.847 67.0815V30.5535H163.647V24.0375H177.432C178.887 24.0375 179.642 24.7949 179.642 26.2482V64.0562Z" fill="#4A5CA9"/>
<path d="M212.333 56.9019H206.109C201.689 56.9019 199.828 58.5886 199.828 61.3806C199.828 64.5219 201.921 65.8019 205.702 65.8019C209.949 65.8019 212.333 62.9512 212.333 59.4606V56.9019ZM212.333 68.3606C210.937 70.7459 208.145 72.1992 204.132 72.1992C197.093 72.1992 192.149 68.7099 192.208 61.7299C192.265 55.2739 196.804 51.0272 205.528 51.0272H212.333V50.6206C212.333 47.3046 210.704 44.2806 206.284 44.2806C203.084 44.2806 201.224 46.1419 200.816 48.2352H192.964C193.837 42.0699 199.246 38.1139 206.633 38.1139C215.3 38.1139 220.128 43.0006 220.128 51.7832V71.2686H212.333V68.3606Z" fill="#4A5CA9"/>
<path d="M233.448 61.6714C233.856 64.4048 235.949 65.9181 239.439 65.9181C243.801 65.9181 244.907 63.9981 244.907 62.6021C244.907 60.6248 243.685 59.4034 236.181 57.3674C230.016 55.6808 226.468 52.7141 226.468 47.6541C226.468 42.2448 230.423 37.9394 238.683 37.9394C246.593 37.9394 250.956 42.2448 251.653 48.2928H243.744C243.277 45.9088 241.591 44.2808 238.333 44.2808C235.077 44.2808 233.856 46.0248 233.856 47.5954C233.856 49.4568 235.657 50.7941 241.765 52.3074C249.793 54.2848 252.411 57.9488 252.411 62.3688C252.411 67.7794 247.931 72.3154 239.439 72.3154C231.412 72.3154 225.595 68.8261 225.305 61.6714H233.448Z" fill="#4A5CA9"/>
<path d="M264.452 61.6714C264.86 64.4048 266.953 65.9181 270.442 65.9181C274.806 65.9181 275.91 63.9981 275.91 62.6021C275.91 60.6248 274.689 59.4034 267.186 57.3674C261.02 55.6808 257.472 52.7141 257.472 47.6541C257.472 42.2448 261.426 37.9394 269.686 37.9394C277.597 37.9394 281.96 42.2448 282.657 48.2928H274.748C274.282 45.9088 272.594 44.2808 269.337 44.2808C266.081 44.2808 264.86 46.0248 264.86 47.5954C264.86 49.4568 266.662 50.7941 272.769 52.3074C280.797 54.2848 283.414 57.9488 283.414 62.3688C283.414 67.7794 278.934 72.3154 270.442 72.3154C262.417 72.3154 256.598 68.8261 256.309 61.6714H264.452Z" fill="#4A5CA9"/>
<path d="M305.112 32.3557H297.084V24.7371H305.112V32.3557ZM287.779 64.929H297.667V45.6184H289.116V39.1024H303.308C304.763 39.1024 305.517 39.8597 305.517 41.3131V64.929H314.184V71.269H287.779V64.929Z" fill="#4A5CA9"/>
<path d="M314.594 39.1031H320.992V35.0898C320.992 27.7031 324.54 24.0378 332.626 24.0378C335.3 24.0378 338.151 23.9218 340.711 24.0964V30.5524H333.904C330.299 30.5524 328.844 32.2978 328.844 35.1484V39.1031H340.128V45.6178H328.844V71.2698H320.992V45.6178H314.594V39.1031Z" fill="#4A5CA9"/>
<path d="M376.193 39.1031L356.765 81.623H349.553L355.891 67.8377L343.27 39.1031H351.646L359.614 60.4497L368.339 39.1031H376.193Z" fill="#4A5CA9"/>
<path d="M76.16 51.6641V41.2894L63.152 49.4988V33.4108L88.5853 16.7548V24.1201L98.8546 17.5921V8.7179e-05L53.2866 29.0001L53.348 97.2881L63.1533 90.3081L63.152 59.9121L76.16 51.6641Z" fill="#4A5CA9"/>
<path d="M0 68.6483L44.3813 97.2883V75.3443L35.568 69.635V77.2217L12.4027 62.2163V19.2857L35.568 33.6777V37.979L44.3813 43.455V28.7777L0 1.24166V68.6483Z" fill="#4A5CA9"/>
<path d="M98.8173 28.0001L88.1813 34.7614V64.8148L73.056 74.3441L73.0467 76.5668L73 76.5988V95.0108C74.4987 93.2468 75.9987 91.4814 77.4973 89.7174L81.7333 95.2214L82.0627 81.6388L98.8173 71.3854V68.4881V28.0001Z" fill="#4A5CA9"/>
</svg>
