<svg width="99" height="98" viewBox="0 0 99 98" fill="none" xmlns="http://www.w3.org/2000/svg">
<path d="M76.16 51.6641V41.2894L63.152 49.4988V33.4108L88.5853 16.7548V24.1201L98.8546 17.5921V8.7179e-05L53.2866 29.0001L53.348 97.2881L63.1533 90.3081L63.152 59.9121L76.16 51.6641Z" fill="#4A5CA9"/>
<path d="M0 68.6483L44.3813 97.2883V75.3443L35.568 69.635V77.2217L12.4027 62.2163V19.2857L35.568 33.6777V37.979L44.3813 43.455V28.7777L0 1.24166V68.6483Z" fill="#4A5CA9"/>
<path d="M98.8173 28.0001L88.1813 34.7614V64.8148L73.056 74.3441L73.0467 76.5668L73 76.5988V95.0108C74.4987 93.2468 75.9987 91.4814 77.4973 89.7174L81.7333 95.2214L82.0627 81.6388L98.8173 71.3854V68.4881V28.0001Z" fill="#4A5CA9"/>
</svg>
